<?xml version="1.0" encoding="UTF-8"?>
<svg id="Layer_1" data-name="Layer 1" xmlns="http://www.w3.org/2000/svg" viewBox="0 0 251.78 126.94">
  <defs>
    <style>
      .cls-1 {
        fill: #ea303b;
      }

      .cls-2 {
        fill: #605c5b;
      }

      .cls-3 {
        fill: #4fa703;
      }
    </style>
  </defs>
  <g>
    <g>
      <g>
        <g>
          <g>
            <path class="cls-2" d="M147.19,27.35c-2.92,1.76-7.4,2.48-10.96,3.92-1.82.74-3.74,1.13-5.6,1.84l3.51-17.25,10.9.07,2.14,11.42Z"/>
            <path class="cls-2" d="M148.63,34.55l12,65.52h-10.32l-2.88-18.48-15.45-.02-3.63,18.49h-10.2l11.04-59.28c3.29-1.18,6.52-2.23,9.84-3.36l-5.52,34.08h12l-5.76-34.32c.7-.24,1.4-.53,2.08-.8,2.14-.86,4.52-1.18,6.8-1.84Z"/>
          </g>
          <g>
            <path class="cls-2" d="M102.79,52.79c5.11,9.8,12.1,21.17,10.53,32.73-1.94,14.25-15.84,20.01-27.81,12.51v-10.92c.97.37,1.68,1.29,2.57,1.87,7.63,5.01,16.3,1.81,14.92-7.96-1.1-7.82-6.68-15.69-10.05-22.71,3.21-1.85,6.61-3.75,9.84-5.52Z"/>
            <path class="cls-2" d="M85.75,29.03c.63-5.29,4.81-10.47,9.68-12.52,5.31-2.24,10.57-1.24,15.76.76v10.32c-1.43-.54-2.73-1.47-4.19-1.93-4.12-1.3-9.44-.8-11.12,3.78-2.09,5.73,1.82,12.87,4.03,18.07-3.27,1.75-6.42,3.44-9.6,5.28-2.8-5.76-5.88-13.4-5.28-19.92.11-1.19.54-2.32.72-3.84Z"/>
          </g>
        </g>
        <path class="cls-1" d="M49.68,36.76c2.29-.47,3.32,1.03,3.16,3.15-.26,3.4-3.04,9.62-3.98,13.3-1.74,6.76-2.73,13.87-3.43,20.81-.27,2.67-.04,5.96-.59,8.53-.83,3.95-6.09,3.65-6.38-1.32-.19-3.21.4-8.44.73-11.77.9-9.04,3.54-19.64,7.01-28.03.66-1.59,1.6-4.29,3.48-4.68Z"/>
        <path class="cls-1" d="M147.19,27.35c.08-.05.91.02,1.25-.06,3.58-.88,8.93-2.78,12.55-2.34,2.64.32,3.74,3.77,1.96,5.69-1.01,1.09-11.57,2.85-13.92,3.49-.3.08-.38.41-.41.42-2.28.66-4.66.98-6.8,1.84-.68.28-1.39.56-2.08.8-.24.08-.48.16-.72.24-3.32,1.13-6.55,2.18-9.84,3.36-9.54,3.41-17.57,7.17-26.4,12-3.23,1.77-6.63,3.67-9.84,5.52-8.84,5.1-17.88,10.02-26.33,15.79-2.86,1.95-6.43,6.46-10.03,3.65-2.12-1.66-.63-5.64.06-7.86,2.12-6.89,6.45-15.33,10.1-21.58,2.05-3.51,4.63-6.74,6.68-10.12.25-.42.48-.86.57-1.35,0-.67-7.14,2.31-7.63,2.45-2.27.65-5.59,1.36-7.7.16-1.49-.85-1.94-2.89-1.09-4.39.97-1.71,5.85-1.58,7.83-2.01,1.57-.34,3.58-1.05,5.12-1.6,2.88-1.04,7.71-4.05,10.13-4.51s3.64.45,5.1,2.1c-.18,1.52-.61,2.65-.72,3.84-8.3,10.84-16.37,22.14-20.64,35.28l25.28-14.68c.32-.05.54-.62.64-.68,3.18-1.84,6.33-3.53,9.6-5.28,9.53-5.11,20.7-10.58,30.72-14.4,1.85-.71,3.78-1.1,5.6-1.84,3.56-1.44,8.04-2.16,10.96-3.92Z"/>
      </g>
      <path class="cls-1" d="M25.18,1.27c.95,1.03,1.23,2.7.98,4.06-4.11,15.08-9.67,29.83-12.18,45.3.42.1.48-.15.71-.38,2.95-2.89,5.64-6.75,10.45-6.34,11.2.96,5.98,23.25,3.43,29.82-3.3,8.48-10.82,22.88-22.02,16.98-.81,2.16-.18,6.42-3.67,5.71-.97-.2-2.56-1.52-2.76-2.52-.3-1.49.03-4.1.19-5.7,2.1-21.95,8.09-47.05,13.99-68.33,1.42-5.12,3.06-12.25,5.09-16.99.81-1.89,1.5-3.37,3.91-2.72.53.14,1.52.73,1.88,1.12ZM16.52,82.45c3.74-3.87,6.31-11.71,7.43-16.94.8-3.74,3.48-18.23-4.62-12.54-3.15,2.22-6.11,8.16-7.44,11.76-2.2,5.92-3.46,12.49-4.33,18.73,3.18,2.49,6.32,1.73,8.97-1.01Z"/>
    </g>
    <g>
      <polygon class="cls-2" points="190.87 16.31 190.87 26.39 175.51 26.39 175.51 100.07 164.71 100.07 164.71 16.31 190.87 16.31"/>
      <g>
        <polygon class="cls-2" points="205.27 89.99 225.19 89.99 225.19 100.07 194.47 100.07 194.47 81.11 204.91 81.11 205.27 81.47 205.27 89.99"/>
        <polygon class="cls-2" points="224.23 16.31 224.23 26.39 205.27 26.39 205.27 31.91 194.47 31.91 194.47 16.31 224.23 16.31"/>
        <path class="cls-3" d="M205.27,51.35h17.28c-.19,1.92-.92,4.29-1.71,6.09-.41.92-2.15,3.99-3.21,3.99h-12.36v17.52h-10.8v-26.16c-.44.07-.41.49-.51.81-.47,1.39-.7,2.77-1.36,4.16-.55,1.15-2.12,3.68-3.52,3.68h-11.88v-9.48c0-.07-.33-.34-.24-.6h17.52v-17.28l10.8-.12v17.4Z"/>
      </g>
    </g>
  </g>
  <path class="cls-2" d="M251.55,110.42c.69.44-.35,4.81-.99,5.43-.71.68-4.3-.28-5.46.06l.19,9.19c-.37,1.65-3.68,1.93-5.08,1.82l-.39-.56.24-10.68-17.06-.58-.17-1.65c6.45-8.13,13.86-15.7,19.27-24.65.58-.52,2.72-.16,3.25.36.56.55-.22,4.91-.26,6-.21,5.57.15,11.2.04,16.78l.19.29c.55.39,3.43-.32,4.09-.75.7-.46.96-1.43,2.14-1.04ZM240.07,112.07v-15.12l-11.28,14.76,11.28.36Z"/>
  <path class="cls-1" d="M55.68,7.72c2.71-.61,4.16.8,4.39,3.43.31,3.67-3.16,12.03-7.74,11.1-5.71-1.16-.47-13.67,3.36-14.53Z"/>
</svg>